<svg xmlns="http://www.w3.org/2000/svg" xmlns:xlink="http://www.w3.org/1999/xlink" xmlns:ev="http://www.w3.org/2001/xml-events" width="1123" height="794" viewBox="0 0 1123 794" id="page1"><style type="text/css"><![CDATA[
.st1 {fill:#000000;font-family:Arial;font-size:10pt}
.st2 {fill:#69ae41;font-size:28pt;font-weight:bold}
.st3 {font-size:11pt;font-weight:bold}
.st4 {font-weight:bold}
]]></style><rect x="0" y="0" width="1123" height="794" fill="#f9f8f4" stroke="#808080"/><path/><g transform="translate(64.1,19.31)" id="shape1"><text class="st1"><tspan x="56.5" y="31.3" class="st2">GNU AutoTools</tspan></text></g><g transform="translate(199.73,208.29)" id="shape2"><path fill="rgb(105, 174, 65)" d="M116.8,0L116.8,59.7L0,59.7L0,0L116.8,0z" stroke="rgb(105, 174, 65)" stroke-width="0.666667"/><text class="st1"><tspan x="6.4" y="36.4" class="st3">configure.scan</tspan></text></g><g transform="translate(257.08,147)" id="shape3"><path stroke="rgb(136, 136, 137)" stroke-width="2.66667" stroke-linecap="round" stroke-dasharray="8.00001,8.00001" d="M0,0L0.4,38.7" fill="none"/><path stroke-linecap="round" stroke-width="1" fill="rgb(136, 136, 137)" stroke="rgb(136, 136, 137)" d="M0.6,61.3L7.1,49.9L-6,50L0.6,61.3zM0.5,50L6.9,38.6L-6.1,38.7L0.5,50z"/><rect x="-30.3" y="15" width="0" height="14" fill="rgb(255, 255, 255)"/><text class="st1"><tspan x="-30.3" y="26" class="st4">autoscan</tspan></text></g><g transform="translate(175.21,89.08)" id="shape4"><path fill="rgb(241, 240, 235)" d="M5.6,0L160.2,0C163.3,0,165.8,3.3,165.8,7.3L165.8,50.6C165.8,54.7,163.3,57.9,160.2,57.9L5.6,57.9C2.5,57.9,0,54.7,0,50.6L0,7.3C0,3.3,2.5,0,5.6,0z" stroke="rgb(85, 85, 85)" stroke-width="4"/><text class="st1"><tspan x="56.9" y="35" class="st4">程序源码</tspan></text></g><g transform="translate(199.73,329.29)" id="shape5"><path fill="rgb(105, 174, 65)" d="M116.8,0L116.8,59.7L0,59.7L0,0L116.8,0z" stroke="rgb(105, 174, 65)" stroke-width="0.666667"/><text class="st1"><tspan x="14.9" y="36.4" class="st3">configure.ac</tspan></text></g><g transform="translate(257.73,267.84)" id="shape6"><path stroke="rgb(136, 136, 137)" stroke-width="2.66667" stroke-linecap="round" stroke-dasharray="8.00001,8.00001" d="M0,0L-0,38.8" fill="none"/><path stroke-linecap="round" stroke-width="1" fill="rgb(136, 136, 137)" stroke="rgb(136, 136, 137)" d="M-0,61.4L6.5,50.1L-6.5,50.1L-0,61.4zM-0,50.1L6.5,38.8L-6.5,38.8L-0,50.1z"/><rect x="-47.2" y="16.2" width="65" height="14" fill="rgb(255, 255, 255)"/><text class="st1"><tspan x="-47.2" y="27.2" class="st4">rename &amp; edit</tspan></text></g><g transform="translate(316.73,359.31)" id="shape7"><path stroke="rgb(136, 136, 137)" stroke-width="2.66667" stroke-linecap="round" stroke-dasharray="8.00001,8.00001" d="M0,0L51.6,58.8" fill="none"/><path stroke-linecap="round" stroke-width="1" fill="rgb(136, 136, 137)" stroke="rgb(136, 136, 137)" d="M66.5,75.9L63.9,63L54.1,71.7L66.5,75.9zM59,67.3L56.5,54.5L46.7,63.1L59,67.3z"/><rect x="-0" y="24.8" width="0" height="14" fill="rgb(255, 255, 255)"/><text class="st1"><tspan x="-0" y="35.8" class="st4">aclocal</tspan></text></g><g transform="translate(383.21,405.15)" id="shape8"><path fill="rgb(105, 174, 65)" d="M116.8,0L116.8,59.7L0,59.7L0,0L116.8,0z" stroke="rgb(105, 174, 65)" stroke-width="0.666667"/><text class="st1"><tspan x="20.9" y="36.4" class="st3">aclocal.m4</tspan></text></g><g transform="translate(16.25,329.29)" id="shape9"><path fill="rgb(105, 174, 65)" d="M116.8,0L116.8,59.7L0,59.7L0,0L116.8,0z" stroke="rgb(105, 174, 65)" stroke-width="0.666667"/><text class="st1"><tspan x="16.4" y="36.4" class="st3">makefile.am</tspan></text></g><g transform="translate(74.25,388.84)" id="shape10"><path stroke="rgb(136, 136, 137)" stroke-width="2.66667" stroke-linecap="round" stroke-dasharray="8.00001,8.00001" d="M0,0L74.8,107.6" fill="none"/><path stroke-linecap="round" stroke-width="1" fill="rgb(136, 136, 137)" stroke="rgb(136, 136, 137)" d="M87.8,126.2L86.7,113.1L75.9,120.6L87.8,126.2zM81.3,116.9L80.2,103.9L69.5,111.3L81.3,116.9z"/><rect x="54.8" y="65.2" width="0" height="14" fill="rgb(255, 255, 255)"/><text class="st1"><tspan x="54.8" y="76.2" class="st4">automake</tspan></text></g><g transform="translate(104,515)" id="shape11"><path fill="rgb(105, 174, 65)" d="M116.8,0L116.8,59.7L0,59.7L0,0L116.8,0z" stroke="rgb(105, 174, 65)" stroke-width="0.666667"/><text class="st1"><tspan x="20.4" y="36.4" class="st3">makefile.in</tspan></text></g><g transform="translate(257.73,388.84)" id="shape12"><path stroke="rgb(136, 136, 137)" stroke-width="2.66667" stroke-linecap="round" stroke-dasharray="8.00001,8.00001" d="M0,0L-82.1,108.1" fill="none"/><path stroke-linecap="round" stroke-width="1" fill="rgb(136, 136, 137)" stroke="rgb(136, 136, 137)" d="M-95.7,126.2L-83.7,121.1L-94.1,113.2L-95.7,126.2zM-88.9,117.1L-76.8,112.1L-87.3,104.2L-88.9,117.1z"/></g><g transform="translate(302,515)" id="shape13"><path fill="rgb(105, 174, 65)" d="M116.8,0L116.8,59.7L0,59.7L0,0L116.8,0z" stroke="rgb(105, 174, 65)" stroke-width="0.666667"/><text class="st1"><tspan x="24.9" y="36.4" class="st3">configure</tspan></text></g><g transform="translate(257.73,388.84)" id="shape14"><path stroke="rgb(136, 136, 137)" stroke-width="2.66667" stroke-linecap="round" stroke-dasharray="8.00001,8.00001" d="M0,0L88,108.6" fill="none"/><path stroke-linecap="round" stroke-width="1" fill="rgb(136, 136, 137)" stroke="rgb(136, 136, 137)" d="M102.3,126.2L100.2,113.3L90.1,121.5L102.3,126.2zM95.1,117.4L93.1,104.5L82.9,112.7L95.1,117.4z"/><rect x="72.3" y="65.2" width="0" height="14" fill="rgb(255, 255, 255)"/><text class="st1"><tspan x="72.3" y="76.2" class="st4">autoconf</tspan></text></g><g transform="translate(441.86,465.3)" id="shape15"><path stroke="rgb(136, 136, 137)" stroke-width="2.66667" stroke-linecap="round" stroke-dasharray="8.00001,8.00001" d="M0,0L-62.5,38" fill="none"/><path stroke-linecap="round" stroke-width="1" fill="rgb(136, 136, 137)" stroke="rgb(136, 136, 137)" d="M-81.9,49.7L-68.8,49.4L-75.6,38.2L-81.9,49.7zM-72.2,43.8L-59.1,43.5L-65.9,32.4L-72.2,43.8z"/></g><g transform="translate(162.66,575.16)" id="shape16"><path stroke="rgb(136, 136, 137)" stroke-width="2.66667" stroke-linecap="round" stroke-dasharray="8.00001,8.00001" d="M0,0L79.7,82.4" fill="none"/><path stroke-linecap="round" stroke-width="1" fill="rgb(136, 136, 137)" stroke="rgb(136, 136, 137)" d="M95.4,98.7L92.3,86L82.9,95.1L95.4,98.7zM87.6,90.5L84.4,77.9L75,86.9L87.6,90.5z"/></g><g transform="translate(360.66,575.16)" id="shape17"><path stroke="rgb(136, 136, 137)" stroke-width="2.66667" stroke-linecap="round" stroke-dasharray="8.00001,8.00001" d="M0,0L-86.2,83" fill="none"/><path stroke-linecap="round" stroke-width="1" fill="rgb(136, 136, 137)" stroke="rgb(136, 136, 137)" d="M-102.6,98.7L-89.9,95.5L-98.9,86.1L-102.6,98.7zM-94.4,90.8L-81.7,87.7L-90.8,78.3L-94.4,90.8z"/></g><g transform="translate(175.21,673.83)" id="shape18"><path fill="rgb(241, 240, 235)" d="M5.6,0L160.2,0C163.3,0,165.8,3.3,165.8,7.3L165.8,50.6C165.8,54.7,163.3,57.9,160.2,57.9L5.6,57.9C2.5,57.9,0,54.7,0,50.6L0,7.3C0,3.3,2.5,0,5.6,0z" stroke="rgb(85, 85, 85)" stroke-width="4"/><text class="st1"><tspan x="56.4" y="35" class="st4">makefile</tspan></text></g><g transform="translate(586,405.15)" id="shape19"><path fill="rgb(105, 174, 65)" d="M116.8,0L116.8,59.7L0,59.7L0,0L116.8,0z" stroke="rgb(105, 174, 65)" stroke-width="0.666667"/><text class="st1"><tspan x="21.4" y="36.4" class="st3">config.h.in</tspan></text></g><g transform="translate(316.73,359.31)" id="shape20"><path stroke="rgb(136, 136, 137)" stroke-width="2.66667" stroke-linecap="round" stroke-dasharray="8.00001,8.00001" d="M0,0L304.9,42.7" fill="none"/><path stroke-linecap="round" stroke-width="1" fill="rgb(136, 136, 137)" stroke="rgb(136, 136, 137)" d="M327.3,45.8L317,37.8L315.2,50.7L327.3,45.8zM316.1,44.3L305.8,36.2L304,49.2L316.1,44.3z"/><rect x="85.3" y="4.7" width="0" height="14" fill="rgb(255, 255, 255)"/><text class="st1"><tspan x="85.3" y="15.7" class="st4">autoheader</tspan></text></g><g transform="translate(472.36,673.89)" id="shape21"><path fill="rgb(241, 240, 235)" d="M5.6,0L160.2,0C163.3,0,165.8,3.3,165.8,7.3L165.8,50.6C165.8,54.7,163.3,57.9,160.2,57.9L5.6,57.9C2.5,57.9,0,54.7,0,50.6L0,7.3C0,3.3,2.5,0,5.6,0z" stroke="rgb(85, 85, 85)" stroke-width="4"/><text class="st1"><tspan x="56.9" y="35" class="st4">config.h</tspan></text></g><g transform="translate(360,574.55)" id="shape22"><path stroke="rgb(136, 136, 137)" stroke-width="2.66667" stroke-linecap="round" stroke-dasharray="8.00001,8.00001" d="M0,0L167.9,86.1" fill="none"/><path stroke-linecap="round" stroke-width="1" fill="rgb(136, 136, 137)" stroke="rgb(136, 136, 137)" d="M188,96.4L180.9,85.5L175,97.1L188,96.4zM177.9,91.3L170.8,80.3L164.9,91.9L177.9,91.3z"/><rect x="-22.5" y="44.4" width="0" height="14" fill="rgb(255, 255, 255)"/><text class="st1"><tspan x="-22.5" y="55.4" class="st4">configure</tspan></text></g><g transform="translate(644.66,465.3)" id="shape23"><path stroke="rgb(136, 136, 137)" stroke-width="2.66667" stroke-linecap="round" stroke-dasharray="8.00001,8.00001" d="M0,0L-87,185.2" fill="none"/><path stroke-linecap="round" stroke-width="1" fill="rgb(136, 136, 137)" stroke="rgb(136, 136, 137)" d="M-96.7,205.7L-85.9,198.2L-97.8,192.7L-96.7,205.7zM-91.8,195.5L-81.1,188L-92.9,182.4L-91.8,195.5z"/></g></svg>